<svg xmlns="http://www.w3.org/2000/svg" width="85" height="84" viewBox="0 0 85 84">
    <defs>
        <linearGradient id="7ewnghev2a" x1="100%" x2="0%" y1="34.835%" y2="34.835%">
            <stop offset=".027%" stop-color="#00AFFF"/>
            <stop offset="100%" stop-color="#FFF"/>
        </linearGradient>
        <filter id="ziayy7equb">
            <feColorMatrix in="SourceGraphic" values="0 0 0 0 0.000000 0 0 0 0 0.549017 0 0 0 0 1.000000 0 0 0 1.000000 0"/>
        </filter>
    </defs>
    <g fill="none" fill-rule="evenodd">
        <g>
            <g>
                <g transform="translate(-230 -4777) translate(203 4777) translate(27.871)">
                    <path fill="url(#7ewnghev2a)" d="M12.006 27H43.022V58H12.006z" transform="matrix(-1 0 0 1 55.03 0)"/>
                    <g stroke-linecap="round" stroke-linejoin="round" filter="url(#ziayy7equb)">
                        <g>
                            <path stroke="#000" stroke-width="3" d="M0 11.975h4.552c1.33 0 2.407-1.078 2.407-2.407 0-1.33-1.078-2.408-2.407-2.408H2.11C.945 7.16 0 6.215 0 5.05c0-1.166.945-2.111 2.11-2.111h4.85M3.386 0L3.386 2.939M3.386 11.975L3.386 14.483" transform="translate(38.02 24)"/>
                        </g>
                    </g>
                    <ellipse cx="41.5" cy="31" stroke="#000" stroke-linecap="round" stroke-linejoin="round" stroke-width="3" rx="13.985" ry="14"/>
                    <path stroke="#000" stroke-linecap="round" stroke-linejoin="round" stroke-width="3" d="M41.522 45.5L41.617 64.636M22.802 49.52l.133-.01c9.361-.758 17.67 5.967 18.878 15.281h0l-.133.01c-9.361.759-17.67-5.966-18.878-15.28h0zM60.778 49.52l-.094-.007c-9.36-.76-17.666 5.965-18.871 15.278h0l.094.008c9.36.76 17.666-5.965 18.871-15.278h0z"/>
                </g>
            </g>
        </g>
    </g>
</svg>
