<svg xmlns="http://www.w3.org/2000/svg" width="85" height="84" viewBox="0 0 85 84">
    <defs>
        <linearGradient id="lwdykc7wpa" x1="50%" x2="50%" y1="1.919%" y2="100%">
            <stop offset=".027%" stop-color="#00AFFF"/>
            <stop offset="100%" stop-color="#FFF"/>
        </linearGradient>
    </defs>
    <g fill="none" fill-rule="evenodd">
        <g>
            <g>
                <g transform="translate(-61 -4619) translate(34 4619) translate(27.871)">
                    <circle cx="29" cy="31" r="18" fill="url(#lwdykc7wpa)"/>
                    <rect width="45" height="39" x="20" y="26" stroke="#000" stroke-linecap="round" stroke-linejoin="round" stroke-width="3" rx="2"/>
                    <path stroke="#000" stroke-linecap="round" stroke-linejoin="round" stroke-width="3" d="M21.538 35.5L64.5 35.5M28.5 30.5L28.5 21.5M56.5 30.5L56.5 21.5"/>
                    <g fill="#008CFF" transform="translate(27 42)">
                        <circle cx="11" cy="2" r="2"/>
                        <circle cx="11" cy="8" r="2"/>
                        <circle cx="11" cy="14" r="2"/>
                        <circle cx="20" cy="14" r="2"/>
                        <circle cx="2" cy="8" r="2"/>
                        <circle cx="2" cy="14" r="2"/>
                        <circle cx="20" cy="2" r="2"/>
                        <circle cx="20" cy="8" r="2"/>
                        <circle cx="29" cy="2" r="2"/>
                        <circle cx="29" cy="8" r="2"/>
                    </g>
                </g>
            </g>
        </g>
    </g>
</svg>
