<svg xmlns="http://www.w3.org/2000/svg" width="85" height="84" viewBox="0 0 85 84">
    <defs>
        <linearGradient id="uegvtamdda" x1="100%" x2="0%" y1="46.524%" y2="46.524%">
            <stop offset=".027%" stop-color="#00AFFF"/>
            <stop offset="100%" stop-color="#FFF"/>
        </linearGradient>
    </defs>
    <g fill="none" fill-rule="evenodd">
        <g>
            <g>
                <g>
                    <g transform="translate(-61 -4777) translate(46 4777) translate(15.871) translate(19.198 19)">
                        <path fill="url(#uegvtamdda)" d="M10.104 11H40.417V45H10.104z"/>
                        <ellipse cx="15.157" cy="15" stroke="#000" stroke-linecap="round" stroke-linejoin="round" stroke-width="3" rx="15.157" ry="15"/>
                        <ellipse cx="15.157" cy="15" stroke="#008CFF" stroke-linecap="round" stroke-linejoin="round" stroke-width="3" rx="10.104" ry="10"/>
                        <g stroke="#000" stroke-linecap="round" stroke-linejoin="round" stroke-width="3">
                            <path d="M0.505 0.5L3.537 3.5" transform="translate(28.292 28)"/>
                            <path d="M10.113 1.16h.038c1.374-.007 2.493 1.1 2.5 2.474v.026l-.068 13.107c-.007 1.37-1.116 2.48-2.487 2.487h-.039c-1.373.007-2.492-1.1-2.5-2.474v-.026l.069-13.107c.007-1.37 1.116-2.48 2.487-2.487z" transform="translate(28.292 28) scale(-1 1) rotate(45 0 -14.187)"/>
                        </g>
                    </g>
                </g>
            </g>
        </g>
    </g>
</svg>
