<svg xmlns="http://www.w3.org/2000/svg" width="85" height="84" viewBox="0 0 85 84">
    <defs>
        <linearGradient id="g3v6vj36aa" x1="99.611%" x2="50%" y1="34.835%" y2="100%">
            <stop offset=".027%" stop-color="#00AFFF"/>
            <stop offset="100%" stop-color="#FFF"/>
        </linearGradient>
    </defs>
    <g fill="none" fill-rule="evenodd">
        <g>
            <g>
                <g>
                    <g transform="translate(-61 -4935) translate(34 4935) translate(27.871) translate(22.747 20)">
                        <ellipse cx="15.603" cy="15.5" fill="url(#g3v6vj36aa)" opacity=".706" rx="15.44" ry="15.5"/>
                        <g stroke="#000" stroke-linecap="round" stroke-linejoin="round" stroke-width="3">
                            <path d="M8.996 41.75c-1.63 0-3.23-.444-4.629-1.283-4.262-2.556-5.646-8.084-3.089-12.347h0l10.418-17.37h14.787L36.9 28.12c2.557 4.263 1.174 9.79-3.09 12.347-1.398.84-2.998 1.282-4.628 1.282zM26.195 0h5.817c.553 0 1 .448 1 1 0 .213-.068.421-.194.593l-6.743 9.156h0-13.143l1.932-3.8C17.033 2.685 21.411 0 26.194 0z" transform="translate(0 2)"/>
                            <g>
                                <path d="M0 11.975h4.521c1.33 0 2.408-1.078 2.408-2.407 0-1.33-1.078-2.408-2.408-2.408h-2.41C.945 7.16 0 6.215 0 5.05c0-1.166.945-2.111 2.11-2.111H6.93M3.371 0L3.371 2.939M3.371 11.975L3.371 14.483" transform="translate(0 2) translate(15.426 18.749)"/>
                            </g>
                            <path d="M8.184 0c2.679 0 5.225 1.164 6.978 3.189h0l1.234 1.425c-.588.71-1.103 1.492-1.532 2.335h0l-1.932 3.8h-1.05L5.14 1.593c-.127-.172-.195-.38-.195-.593 0-.552.448-1 1-1h0z" transform="translate(0 2)"/>
                        </g>
                    </g>
                </g>
            </g>
        </g>
    </g>
</svg>
