<svg xmlns="http://www.w3.org/2000/svg" version="1.1" xmlns:xlink="http://www.w3.org/1999/xlink" xmlns:svgjs="http://svgjs.dev/svgjs" viewBox="0 0 800 800" opacity="1"><defs><symbol id="bbburst-shape-1" viewBox="0 0 194 167"><path d="m97 0 96.129 166.5H.871L97 0Z"></path></symbol><symbol id="bbburst-shape-4" viewBox="0 0 149 143"><path d="M71.647 2.781c.898-2.764 4.808-2.764 5.706 0l15.445 47.534a3 3 0 0 0 2.853 2.073h49.98c2.906 0 4.115 3.719 1.764 5.427L106.96 87.193a2.999 2.999 0 0 0-1.09 3.354l15.445 47.534c.898 2.764-2.266 5.062-4.617 3.354l-40.435-29.378a3 3 0 0 0-3.526 0l-40.435 29.378c-2.351 1.708-5.515-.59-4.617-3.354L43.13 90.547a3 3 0 0 0-1.09-3.354L1.605 57.815c-2.35-1.708-1.142-5.427 1.764-5.427h49.98a3 3 0 0 0 2.853-2.073L71.647 2.781Z"></path></symbol><symbol id="bbburst-shape-5" viewBox="0 0 145 145"><circle cx="72.5" cy="72.5" r="72.5"></circle></symbol><symbol id="bbburst-shape-8" viewBox="0 0 87 168"><path d="m12 12 31.2546 18.0749c16.4102 9.4902 20.014 31.6325 7.4603 45.8369L36.3296 92.1884c-12.5684 14.2206-8.9394 36.3916 7.5068 45.8636L75 156" stroke-width="14" stroke-linecap="round" stroke-linejoin="round"></path></symbol><symbol id="bbburst-shape-9" viewBox="0 0 182 172"><path d="M13.5809 69.845 91 13.5967l77.419 56.2483-29.571 91.012H43.1524L13.5809 69.845Z" stroke-width="22"></path></symbol><symbol id="bbburst-shape-10" viewBox="0 0 145 145"><circle cx="72.5" cy="72.5" r="61.5" fill="none" stroke-width="22"></circle></symbol><symbol id="bbburst-shape-12" viewBox="0 0 170 151"><path d="M69.3728 54.2122 85 10.0031l15.627 44.2091c1.413 3.9958 5.19 6.6672 9.428 6.6673h49.312l-39.149 26.1447c-3.803 2.5401-5.399 7.3367-3.875 11.6488l15.179 42.94-40.9683-27.36c-3.3621-2.245-7.7453-2.245-11.1074 0l-40.9682 27.36 15.1785-42.94c1.5243-4.3121-.0712-9.1087-3.8746-11.6488L10.6333 60.8795h49.3112c4.2381-.0001 8.0159-2.6715 9.4283-6.6673Z" stroke-width="12"></path></symbol></defs><use xlink:href="#bbburst-shape-10" width="30.84329698933864" opacity="0.3981479194711579" transform="matrix(0.9179209588562827,-0.39676329630191676,0.39676329630191676,0.9179209588562827,465.9058252761408,-88.88183310983146)" fill="none" stroke="#de8ec7"></use><use xlink:href="#bbburst-shape-1" width="7.498378474478239" opacity="0.8266607402163131" transform="matrix(0.7325880769393361,0.6806722482416374,-0.6806722482416374,0.7325880769393361,597.3176095898747,133.94698049067347)" fill="#f3faa0"></use><use xlink:href="#bbburst-shape-1" width="23.173255205469147" opacity="0.464917695027107" transform="matrix(0.7818425514664309,-0.623475921521001,0.623475921521001,0.7818425514664309,149.95163100409036,335.15141319918297)" fill="#faa0b4"></use><use xlink:href="#bbburst-shape-8" width="36.506755233757495" opacity="0.024526238757627272" transform="matrix(0.9997319179133125,0.023153667212124696,-0.023153667212124696,0.9997319179133125,33.43609412340189,-254.92779089611307)" fill="none" stroke="#faa0b4"></use><use xlink:href="#bbburst-shape-1" width="32.01405684619411" opacity="0.233642264451003" transform="matrix(0.9120732415654874,-0.4100273186267277,0.4100273186267277,0.9120732415654874,561.1145436044296,101.16413692560712)" fill="#ffbd9b"></use><use xlink:href="#bbburst-shape-12" width="7.333544322831234" opacity="0.9373838466902457" transform="matrix(0.9938025409461908,0.11115983811113982,-0.11115983811113982,0.9938025409461908,460.4493980441125,22.274473762550656)" fill="none" stroke="#de8ec7"></use><use xlink:href="#bbburst-shape-12" width="19.276783080798758" opacity="0.6051305603110236" transform="matrix(0.9062916846782908,-0.42265279164224806,0.42265279164224806,0.9062916846782908,86.43096641006775,156.1724941056449)" fill="none" stroke="#ffbd9b"></use><use xlink:href="#bbburst-shape-4" width="14.817415666433517" opacity="0.6185850913891389" transform="matrix(0.7085007912606415,0.7057100174880933,-0.7057100174880933,0.7085007912606415,569.9393125257327,-22.752427168464237)" fill="#9f82f5"></use><use xlink:href="#bbburst-shape-9" width="10.466460245354554" opacity="0.8103051725581416" transform="matrix(0.9785685038608515,0.20592154635087287,-0.20592154635087287,0.9785685038608515,403.0497971257569,-34.756146919486525)" fill="none" stroke="#9f82f5"></use><use xlink:href="#bbburst-shape-8" width="31.17027011370547" opacity="0.42264518271905205" transform="matrix(0.8268438873137981,-0.5624314945056039,0.5624314945056039,0.8268438873137981,372.95532992246655,229.87777338801993)" fill="none" stroke="#f3faa0"></use><use xlink:href="#bbburst-shape-12" width="9.723821342510035" opacity="0.8132818447878665" transform="matrix(0.9020985058568415,-0.4315301678108427,0.4315301678108427,0.9020985058568415,175.8216774999952,110.77425858533257)" fill="none" stroke="#9f82f5"></use><use xlink:href="#bbburst-shape-10" width="12.514825597036427" opacity="0.7576806865464596" transform="matrix(0.7529747319746193,0.6580494305200411,-0.6580494305200411,0.7529747319746193,725.8100592020825,180.48854754481005)" fill="none" stroke="#9f82f5"></use><use xlink:href="#bbburst-shape-10" width="24.069884209953244" opacity="0.5432361673037069" transform="matrix(0.8569863938705415,-0.5153390347341884,0.5153390347341884,0.8569863938705415,148.7154987219605,-139.1628081088807)" fill="none" stroke="#de8ec7"></use><use xlink:href="#bbburst-shape-12" width="5.717950660616511" opacity="0.9336906115673478" transform="matrix(0.9938179212686935,-0.11102224716322796,0.11102224716322796,0.9938179212686935,344.7913038967331,31.53859701078966)" fill="none" stroke="#9f82f5"></use><use xlink:href="#bbburst-shape-8" width="32.21464013039629" opacity="0.09176208719457024" transform="matrix(0.7575325350927692,-0.652797409826297,0.652797409826297,0.7575325350927692,-240.68827537562555,286.61788419700656)" fill="none" stroke="#faa0b4"></use><use xlink:href="#bbburst-shape-8" width="10.461777270748719" opacity="0.7665775770821617" transform="matrix(0.8129178657302288,0.5823783508824909,-0.5823783508824909,0.8129178657302288,586.5989249012589,168.02058135663128)" fill="none" stroke="#f3faa0"></use><use xlink:href="#bbburst-shape-8" width="14.559757177295701" opacity="0.7024713330811583" transform="matrix(0.9746342917535531,0.22380347928048372,-0.22380347928048372,0.9746342917535531,425.4621021454465,-112.64843617921849)" fill="none" stroke="#faa0b4"></use><use xlink:href="#bbburst-shape-8" width="28.08770565150612" opacity="0.17189900574642436" transform="matrix(0.9992380804961125,-0.039028944213808786,0.039028944213808786,0.9992380804961125,693.3495926436191,186.70039755047236)" fill="none" stroke="#faa0b4"></use><use xlink:href="#bbburst-shape-9" width="12.064640401829605" opacity="0.7218096971443708" transform="matrix(0.9983200324447568,-0.057940597334682924,0.057940597334682924,0.9983200324447568,485.01848533503886,52.173792209689964)" fill="none" stroke="#9f82f5"></use><use xlink:href="#bbburst-shape-10" width="31.335402288104873" opacity="0.3169822416849456" transform="matrix(0.7498574430867979,-0.661599437006509,0.661599437006509,0.7498574430867979,-172.65570429649907,192.24311137945153)" fill="none" stroke="#9f82f5"></use><use xlink:href="#bbburst-shape-8" width="9.054257018616681" opacity="0.81456109908763" transform="matrix(0.729232625876692,0.6842658674499149,-0.6842658674499149,0.729232625876692,651.3292511046101,186.4471196566845)" fill="none" stroke="#faa0b4"></use><use xlink:href="#bbburst-shape-12" width="6.141635511595248" opacity="0.8971978359660708" transform="matrix(0.7546755837413859,0.6560981354222846,-0.6560981354222846,0.7546755837413859,643.1009708670207,139.1196304277193)" fill="none" stroke="#faa0b4"></use><use xlink:href="#bbburst-shape-12" width="11.503740218596391" opacity="0.7382454905340643" transform="matrix(0.81939757183512,0.573225626844011,-0.573225626844011,0.81939757183512,613.1297988016398,-48.304005840275465)" fill="none" stroke="#f3faa0"></use><use xlink:href="#bbburst-shape-1" width="10.129672941323653" opacity="0.7726545160310605" transform="matrix(0.8227333027029365,0.5684275790490096,-0.5684275790490096,0.8227333027029365,530.2005367456411,110.67811834448526)" fill="#faa0b4"></use><use xlink:href="#bbburst-shape-4" width="8.82355445767273" opacity="0.8130801639989791" transform="matrix(0.9862067268357607,-0.16551825260041653,0.16551825260041653,0.9862067268357607,247.63415697692892,-13.300917372265133)" fill="#ffbd9b"></use><use xlink:href="#bbburst-shape-8" width="6.544891057343012" opacity="0.8928091543980284" transform="matrix(0.9580186178293184,-0.28670599556410115,0.28670599556410115,0.9580186178293184,248.01717821014083,51.7811617671025)" fill="none" stroke="#faa0b4"></use><use xlink:href="#bbburst-shape-5" width="19.24337834424328" opacity="0.5483384708090622" transform="matrix(0.8647646353121295,-0.5021773845101745,0.5021773845101745,0.8647646353121295,14.709086368938216,-42.55609729434383)" fill="#f3faa0"></use><use xlink:href="#bbburst-shape-9" width="25.817564245962085" opacity="0.32017004317393394" transform="matrix(0.7188586441797987,0.6951562771693727,-0.6951562771693727,0.7188586441797987,542.7559469077291,382.06171309054423)" fill="none" stroke="#ffbd9b"></use><use xlink:href="#bbburst-shape-9" width="8.974787908317442" opacity="0.8209480674853042" transform="matrix(0.7161900589275373,-0.6979052940717463,0.6979052940717463,0.7161900589275373,197.73016874533585,124.87753272492108)" fill="none" stroke="#f3faa0"></use><use xlink:href="#bbburst-shape-12" width="18.264661731793066" opacity="0.47806733432548953" transform="matrix(0.9168565310854006,-0.39921686012247265,0.39921686012247265,0.9168565310854006,111.99755817223371,238.81518372393646)" fill="none" stroke="#9f82f5"></use><use xlink:href="#bbburst-shape-9" width="5.075250089856498" opacity="0.9607404576850844" transform="matrix(0.9998443244983682,-0.01764445432428171,0.01764445432428171,0.9998443244983682,404.9199726441615,-9.997579408200863)" fill="none" stroke="#ffbd9b"></use><use xlink:href="#bbburst-shape-10" width="6.362864436699002" opacity="0.8921983623433809" transform="matrix(0.7105677381757136,0.7036288009055987,-0.7036288009055987,0.7105677381757136,632.1752117418825,101.58376215199644)" fill="none" stroke="#ffbd9b"></use><use xlink:href="#bbburst-shape-8" width="22.445056526565054" opacity="0.17788706639999052" transform="matrix(0.9999999105219136,0.0004230321084121344,-0.0004230321084121344,0.9999999105219136,19.234068447211186,13.269544237886123)" fill="none" stroke="#f3faa0"></use><use xlink:href="#bbburst-shape-4" width="10.965660313853137" opacity="0.6666385295952895" transform="matrix(0.9451104455287737,-0.3267510455261053,0.3267510455261053,0.9451104455287737,367.9532841624949,132.02789075147996)" fill="#9f82f5"></use><use xlink:href="#bbburst-shape-8" width="5.447430964689783" opacity="0.9417420476811093" transform="matrix(0.7965602234980131,-0.6045591867971203,0.6045591867971203,0.7965602234980131,161.0776296421443,57.301580338700774)" fill="none" stroke="#f3faa0"></use><use xlink:href="#bbburst-shape-10" width="9.846984180380975" opacity="0.7798376887021103" transform="matrix(0.957727056088793,0.28767844207638144,-0.28767844207638144,0.957727056088793,456.84181316365385,-67.88404322587365)" fill="none" stroke="#f3faa0"></use><use xlink:href="#bbburst-shape-8" width="6.64165595976609" opacity="0.895264715391507" transform="matrix(0.9217985300010967,-0.3876692792675444,0.3876692792675444,0.9217985300010967,273.1381580415754,67.83401775699474)" fill="none" stroke="#f3faa0"></use><use xlink:href="#bbburst-shape-10" width="5.905080112483171" opacity="0.9252873177754956" transform="matrix(0.9980723864567491,0.062060546182978724,-0.062060546182978724,0.9980723864567491,392.37308127973006,-15.532020421422658)" fill="none" stroke="#faa0b4"></use><use xlink:href="#bbburst-shape-12" width="24.229613418706062" opacity="0.5622907361765568" transform="matrix(0.9972758343104049,0.07376252639711978,-0.07376252639711978,0.9972758343104049,444.1700224451443,-194.99289404185612)" fill="none" stroke="#faa0b4"></use><use xlink:href="#bbburst-shape-9" width="23.77523814964824" opacity="0.5296460506000413" transform="matrix(0.9121456360469998,-0.4098662448170307,0.4098662448170307,0.9121456360469998,426.2470328563484,-26.14317880664362)" fill="none" stroke="#faa0b4"></use><use xlink:href="#bbburst-shape-4" width="20.77790393404349" opacity="0.4537211577450654" transform="matrix(0.994340881929672,0.10623657808552626,-0.10623657808552626,0.994340881929672,187.89698781829168,28.829340157122203)" fill="#faa0b4"></use><use xlink:href="#bbburst-shape-4" width="15.330173170560537" opacity="0.7196862399759321" transform="matrix(0.802233585187849,0.5970102803106914,-0.5970102803106914,0.802233585187849,636.0082332822309,200.63796273747226)" fill="#9f82f5"></use><use xlink:href="#bbburst-shape-8" width="10.809529243508502" opacity="0.7106027408728492" transform="matrix(0.9673054826960059,-0.25361408309919803,0.25361408309919803,0.9673054826960059,210.94770981444228,-86.41422963668055)" fill="none" stroke="#f3faa0"></use><use xlink:href="#bbburst-shape-8" width="11.372986622639218" opacity="0.7073656620044648" transform="matrix(0.8482362573514939,0.5296180243480486,-0.5296180243480486,0.8482362573514939,501.62670138187235,-21.25253789988659)" fill="none" stroke="#ffbd9b"></use><use xlink:href="#bbburst-shape-9" width="16.523246646259157" opacity="0.6606186397589728" transform="matrix(0.9999039165924579,0.013862091583271334,-0.013862091583271334,0.9999039165924579,260.5245386904702,-68.16030530846052)" fill="none" stroke="#faa0b4"></use><use xlink:href="#bbburst-shape-4" width="17.6030198763205" opacity="0.6234325811266965" transform="matrix(0.9776900399125399,0.2100528168242841,-0.2100528168242841,0.9776900399125399,633.3413068305723,68.52075604008871)" fill="#faa0b4"></use><use xlink:href="#bbburst-shape-10" width="5.844991842347878" opacity="0.9627850045252788" transform="matrix(0.7889129035098227,-0.6145050290076568,0.6145050290076568,0.7889129035098227,137.12233641226612,78.33775765791307)" fill="none" stroke="#9f82f5"></use><use xlink:href="#bbburst-shape-12" width="5.583496972317908" opacity="0.909207973276861" transform="matrix(0.9199192064678391,-0.3921079616273831,0.3921079616273831,0.9199192064678391,276.4016555282318,52.774465368369704)" fill="none" stroke="#ffbd9b"></use><use xlink:href="#bbburst-shape-9" width="28.058474996298287" opacity="0.5455305351005196" transform="matrix(0.7356089393164247,0.6774064425422632,-0.6774064425422632,0.7356089393164247,775.7675729308455,-73.00323758645013)" fill="none" stroke="#faa0b4"></use><use xlink:href="#bbburst-shape-8" width="25.524510579332862" opacity="0.338262148867843" transform="matrix(0.984486424983318,0.1754607620625361,-0.1754607620625361,0.984486424983318,223.61669339333773,-180.19836750018825)" fill="none" stroke="#ffbd9b"></use><use xlink:href="#bbburst-shape-9" width="15.257495892246634" opacity="0.6503691066017383" transform="matrix(0.9794891677618763,0.20149682438477007,-0.20149682438477007,0.9794891677618763,434.0345735965963,-145.8283375453352)" fill="none" stroke="#f3faa0"></use><use xlink:href="#bbburst-shape-5" width="17.978393943953844" opacity="0.6202524539637698" transform="matrix(0.9615967455259193,-0.27446620738072725,0.27446620738072725,0.9615967455259193,130.24954647457037,97.22892527611214)" fill="#faa0b4"></use><use xlink:href="#bbburst-shape-9" width="8.53217179342542" opacity="0.8567388723201571" transform="matrix(0.923306542698618,-0.38406383350938555,0.38406383350938555,0.923306542698618,306.73101367552755,27.8680393218645)" fill="none" stroke="#9f82f5"></use><use xlink:href="#bbburst-shape-8" width="12.335058209449286" opacity="0.7165741189912589" transform="matrix(0.9735457425102501,0.22849220389362482,-0.22849220389362482,0.9735457425102501,514.8399709614521,-114.92313198947045)" fill="none" stroke="#de8ec7"></use><use xlink:href="#bbburst-shape-12" width="8.746355773931638" opacity="0.8848095830470188" transform="matrix(0.7252215169478624,-0.688515614460443,0.688515614460443,0.7252215169478624,105.56650836445795,63.55626039751422)" fill="none" stroke="#9f82f5"></use><use xlink:href="#bbburst-shape-12" width="31.9544282996058" opacity="0.040461211774541206" transform="matrix(0.9981464004776144,-0.06085855086659511,0.06085855086659511,0.9981464004776144,112.32464275528606,-352.24719276241535)" fill="none" stroke="#9f82f5"></use><use xlink:href="#bbburst-shape-12" width="12.942035273056039" opacity="0.65213376323969" transform="matrix(0.948436782619584,0.3169663536942241,-0.3169663536942241,0.948436782619584,364.7222634512152,4.797517138098044)" fill="none" stroke="#faa0b4"></use><use xlink:href="#bbburst-shape-9" width="13.292598584665823" opacity="0.6923918598064361" transform="matrix(0.9713899981378793,0.2374899398241763,-0.2374899398241763,0.9713899981378793,556.5897626583526,130.3322990079626)" fill="none" stroke="#9f82f5"></use><use xlink:href="#bbburst-shape-8" width="9.593808564366322" opacity="0.8665723466686108" transform="matrix(0.9906316538220773,0.1365610722194875,-0.1365610722194875,0.9906316538220773,450.2965926877282,-56.94867801410538)" fill="none" stroke="#f3faa0"></use><use xlink:href="#bbburst-shape-8" width="11.926534857577993" opacity="0.7116110585924877" transform="matrix(0.9438528796534916,0.33036607206220725,-0.33036607206220725,0.9438528796534916,413.4718481263103,84.22359251523932)" fill="none" stroke="#9f82f5"></use><use xlink:href="#bbburst-shape-4" width="37.789106678157125" opacity="0.04141427667451181" transform="matrix(0.9906153835391307,-0.13667904702484934,0.13667904702484934,0.9906153835391307,565.9671074983386,-352.49661116129016)" fill="#faa0b4"></use><use xlink:href="#bbburst-shape-12" width="5.109959585156962" opacity="0.943453709896971" transform="matrix(0.9061005054344226,-0.4230624942623536,0.4230624942623536,0.9061005054344226,213.54248226104949,18.01492921529814)" fill="none" stroke="#f3faa0"></use><use xlink:href="#bbburst-shape-5" width="5.383158311089211" opacity="0.9191949417644745" transform="matrix(0.981726260490209,0.1902985797737609,-0.1902985797737609,0.981726260490209,442.8173865619789,26.347252572722653)" fill="#f3faa0"></use><use xlink:href="#bbburst-shape-8" width="25.335650906934976" opacity="0.3767100357508022" transform="matrix(0.8458408763993703,-0.5334352929943285,0.5334352929943285,0.8458408763993703,132.2438322055554,345.4815705990465)" fill="none" stroke="#ffbd9b"></use><use xlink:href="#bbburst-shape-12" width="13.324861904347417" opacity="0.787119732611783" transform="matrix(0.7908791976938844,-0.6119722989278826,0.6119722989278826,0.7908791976938844,196.6794794156902,4.093593610569087)" fill="none" stroke="#de8ec7"></use><use xlink:href="#bbburst-shape-8" width="12.139965562557387" opacity="0.7715604943275857" transform="matrix(0.8698145221399127,0.4933788575471341,-0.4933788575471341,0.8698145221399127,514.482971501272,-18.354746581934762)" fill="none" stroke="#de8ec7"></use><use xlink:href="#bbburst-shape-4" width="6.166981429730939" opacity="0.9379051808429276" transform="matrix(0.9401385825581113,-0.3407923790016809,0.3407923790016809,0.9401385825581113,233.02405009323587,21.828183427197757)" fill="#9f82f5"></use><use xlink:href="#bbburst-shape-12" width="17.775290894218422" opacity="0.6412421202480993" transform="matrix(0.997127430822636,-0.07574223855319619,0.07574223855319619,0.997127430822636,470.8475545005167,-116.36755021092824)" fill="none" stroke="#faa0b4"></use><use xlink:href="#bbburst-shape-5" width="26.447539757122236" opacity="0.2308236392894384" transform="matrix(0.9174944078733733,-0.39774867884266835,0.39774867884266835,0.9174944078733733,373.50739169415067,352.6756893490228)" fill="#9f82f5"></use><use xlink:href="#bbburst-shape-4" width="28.557653183726494" opacity="0.12441840311930741" transform="matrix(0.9709939081068936,-0.23910422501348952,0.23910422501348952,0.9709939081068936,660.3469352875724,-120.81966047379359)" fill="#faa0b4"></use><use xlink:href="#bbburst-shape-10" width="24.741416647704114" opacity="0.26537459235601724" transform="matrix(0.8560051629533045,-0.5169672726559067,0.5169672726559067,0.8560051629533045,501.4180806595715,-23.49528731408094)" fill="none" stroke="#9f82f5"></use><use xlink:href="#bbburst-shape-12" width="7.403258128357221" opacity="0.8233823459958208" transform="matrix(0.9797842765535367,-0.2000569204463137,0.2000569204463137,0.9797842765535367,262.7190445650187,-49.84384824243267)" fill="none" stroke="#9f82f5"></use><use xlink:href="#bbburst-shape-10" width="10.53955284047143" opacity="0.8380380798566182" transform="matrix(0.9909114736621872,-0.1345156175491624,0.1345156175491624,0.9909114736621872,283.9244647590388,49.70404297832988)" fill="none" stroke="#9f82f5"></use><use xlink:href="#bbburst-shape-4" width="16.618398374815467" opacity="0.7015612070179514" transform="matrix(0.7591697379031122,0.6508927016429974,-0.6508927016429974,0.7591697379031122,787.9589961674684,80.87117461194134)" fill="#9f82f5"></use><use xlink:href="#bbburst-shape-12" width="34.1816120926153" opacity="0.16530810076246538" transform="matrix(0.7182088997377833,-0.6958275478431726,0.6958275478431726,0.7182088997377833,363.06014345809825,-152.41160283615733)" fill="none" stroke="#faa0b4"></use><use xlink:href="#bbburst-shape-4" width="9.848585005483699" opacity="0.7707403279843996" transform="matrix(0.9535853296169625,-0.3011229302781656,0.3011229302781656,0.9535853296169625,314.81759524731444,115.17089603613317)" fill="#de8ec7"></use><use xlink:href="#bbburst-shape-5" width="16.561265167477483" opacity="0.6862370506425384" transform="matrix(0.8472595092196723,0.5311791826086939,-0.5311791826086939,0.8472595092196723,724.173587104499,-19.732973211556725)" fill="#ffbd9b"></use><use xlink:href="#bbburst-shape-8" width="6.956129580448759" opacity="0.9269619054328665" transform="matrix(0.9977762983852838,0.06665176952310443,-0.06665176952310443,0.9977762983852838,443.0319635297817,-25.544637946480293)" fill="none" stroke="#9f82f5"></use><use xlink:href="#bbburst-shape-8" width="4.964144174868283" opacity="0.9827687815452231" transform="matrix(0.8035230047300248,0.595273702484523,-0.595273702484523,0.8035230047300248,628.4832191311455,78.48440099254589)" fill="none" stroke="#9f82f5"></use><use xlink:href="#bbburst-shape-8" width="20.06323452556795" opacity="0.4273171770521109" transform="matrix(0.7677508145146275,0.6407485363324102,-0.6407485363324102,0.7677508145146275,421.6736726548014,-35.669566362932756)" fill="none" stroke="#de8ec7"></use><use xlink:href="#bbburst-shape-9" width="8.683273797771651" opacity="0.8339606051263846" transform="matrix(0.9496227797029819,-0.3133952397040867,0.3133952397040867,0.9496227797029819,289.98653593519515,93.58804499909809)" fill="none" stroke="#9f82f5"></use><use xlink:href="#bbburst-shape-10" width="21.654319064402742" opacity="0.46265418841198946" transform="matrix(0.9756174068255672,0.2194781891190006,-0.2194781891190006,0.9756174068255672,248.61480170376717,86.15428983115271)" fill="none" stroke="#f3faa0"></use><use xlink:href="#bbburst-shape-4" width="29.057653322060645" opacity="0.3280568896103404" transform="matrix(0.9714075672363329,0.23741806653241299,-0.23741806653241299,0.9714075672363329,758.0653721009969,128.76300969627346)" fill="#faa0b4"></use><use xlink:href="#bbburst-shape-8" width="28.839400148885545" opacity="0.3728512343927398" transform="matrix(0.752093479228619,-0.6590564456112926,0.6590564456112926,0.752093479228619,-124.61447669458371,239.32936620068625)" fill="none" stroke="#faa0b4"></use><use xlink:href="#bbburst-shape-10" width="29.791734676266834" opacity="0.3764408190617463" transform="matrix(0.9541724508513895,-0.2992573040650015,0.2992573040650015,0.9541724508513895,438.149438461872,244.44320639281477)" fill="none" stroke="#9f82f5"></use><use xlink:href="#bbburst-shape-9" width="24.478519528903128" opacity="0.2727607896719295" transform="matrix(0.9694902230863347,0.24512998050016047,-0.24512998050016047,0.9694902230863347,345.20172778674174,-286.26889589854005)" fill="none" stroke="#faa0b4"></use><use xlink:href="#bbburst-shape-4" width="31.807514942578965" opacity="0.019354680668388302" transform="matrix(0.8235668912103838,-0.5672191602035881,0.5672191602035881,0.8235668912103838,-97.53182514214873,437.94556050064875)" fill="#f3faa0"></use><use xlink:href="#bbburst-shape-10" width="7.124590311000779" opacity="0.8792422265305404" transform="matrix(0.9524001726614085,-0.3048506373857846,0.3048506373857846,0.9524001726614085,226.2728085254608,44.84319760126135)" fill="none" stroke="#faa0b4"></use><use xlink:href="#bbburst-shape-9" width="31.060463286678488" opacity="0.3152481304018685" transform="matrix(0.9815125268475909,-0.19139790918726657,0.19139790918726657,0.9815125268475909,16.38751919760375,-88.93111459692841)" fill="none" stroke="#f3faa0"></use><use xlink:href="#bbburst-shape-10" width="28.189732195176838" opacity="0.16009113320673674" transform="matrix(0.9553824936380295,-0.295371445556236,0.295371445556236,0.9553824936380295,363.3678747499591,387.8398743667168)" fill="none" stroke="#f3faa0"></use><use xlink:href="#bbburst-shape-9" width="33.536162928694935" opacity="0.18838750876476384" transform="matrix(0.7468838345020826,0.664954538114799,-0.664954538114799,0.7468838345020826,294.3198226886091,24.341586191335125)" fill="none" stroke="#faa0b4"></use><use xlink:href="#bbburst-shape-12" width="4.742273903318679" opacity="0.9192611666758999" transform="matrix(0.9989042236022871,0.04680119730853022,-0.04680119730853022,0.9989042236022871,381.29228769039787,9.849836396363287)" fill="none" stroke="#faa0b4"></use><use xlink:href="#bbburst-shape-5" width="12.552989391580295" opacity="0.7561348263134741" transform="matrix(0.9705720981816744,0.24081071868009135,-0.24081071868009135,0.9705720981816744,389.86590642113447,-34.116731424541854)" fill="#f3faa0"></use><use xlink:href="#bbburst-shape-4" width="16.52286235777033" opacity="0.6869104122566964" transform="matrix(0.9165479953136081,-0.3999247082722024,0.3999247082722024,0.9165479953136081,97.42280058835993,76.87231680933655)" fill="#de8ec7"></use><use xlink:href="#bbburst-shape-5" width="29.214727900773745" opacity="0.38060343179472966" transform="matrix(0.8099067841460549,0.5865586083199151,-0.5865586083199151,0.8099067841460549,730.2133067695605,324.66641545089567)" fill="#de8ec7"></use><use xlink:href="#bbburst-shape-10" width="7.926865308678903" opacity="0.8372365538771708" transform="matrix(0.9576085631695146,0.2880726292871606,-0.2880726292871606,0.9576085631695146,580.186327540342,-9.437601351892965)" fill="none" stroke="#f3faa0"></use><use xlink:href="#bbburst-shape-12" width="6.488378759906431" opacity="0.9052378174924" transform="matrix(0.886834475008035,0.46208723628469,-0.46208723628469,0.886834475008035,555.7580011236073,10.115807108406045)" fill="none" stroke="#f3faa0"></use><use xlink:href="#bbburst-shape-10" width="8.535487117810208" opacity="0.8618444437795232" transform="matrix(0.9990267194942186,-0.0441091117187808,0.0441091117187808,0.9990267194942186,341.4448872381354,50.797495484399406)" fill="none" stroke="#ffbd9b"></use><use xlink:href="#bbburst-shape-4" width="11.245160462232011" opacity="0.7747604065613771" transform="matrix(0.880483475457988,-0.47407683917844223,0.47407683917844223,0.880483475457988,294.2517474563423,1.665718451359055)" fill="#f3faa0"></use><use xlink:href="#bbburst-shape-12" width="18.837334098886572" opacity="0.6111218589742488" transform="matrix(0.9955901097316292,-0.09381009223192627,0.09381009223192627,0.9955901097316292,303.790306056662,170.51914397594356)" fill="none" stroke="#faa0b4"></use><use xlink:href="#bbburst-shape-8" width="7.856360028638032" opacity="0.8558860093090624" transform="matrix(0.9755306881649862,-0.21986331310236465,0.21986331310236465,0.9755306881649862,256.1879938341378,-28.053764789128024)" fill="none" stroke="#9f82f5"></use><use xlink:href="#bbburst-shape-12" width="32.04157813106575" opacity="0.004440205798488583" transform="matrix(0.9988293024280873,0.04837380087423964,-0.04837380087423964,0.9988293024280873,43.17650073161868,266.0570983919702)" fill="none" stroke="#ffbd9b"></use><use xlink:href="#bbburst-shape-10" width="19.27307038717765" opacity="0.5656482696679495" transform="matrix(0.83137632979778,-0.5557098147882337,0.5557098147882337,0.83137632979778,-17.613213042766773,128.62593929526645)" fill="none" stroke="#faa0b4"></use><use xlink:href="#bbburst-shape-9" width="19.611182116948484" opacity="0.5966475104543519" transform="matrix(0.8206293768875728,-0.5714607823719087,0.5714607823719087,0.8206293768875728,271.4479801009983,223.01007875491257)" fill="none" stroke="#f3faa0"></use><use xlink:href="#bbburst-shape-8" width="8.785535609188859" opacity="0.8397720835561184" transform="matrix(0.9665515515308492,0.2564724122265556,-0.2564724122265556,0.9665515515308492,545.4273990970778,66.85908061620034)" fill="none" stroke="#f3faa0"></use><use xlink:href="#bbburst-shape-10" width="12.764965628646866" opacity="0.7874700675432678" transform="matrix(0.7407179301556986,0.6718161563596529,-0.6718161563596529,0.7407179301556986,753.4658094430472,133.22402103597932)" fill="none" stroke="#de8ec7"></use><use xlink:href="#bbburst-shape-4" width="10.682769188943949" opacity="0.7789022892369727" transform="matrix(0.7594808859766945,0.6505296179545211,-0.6505296179545211,0.7594808859766945,579.7012022735064,156.41765791602046)" fill="#de8ec7"></use><use xlink:href="#bbburst-shape-5" width="13.29761447412194" opacity="0.624017475873583" transform="matrix(0.9751019050488722,0.22175724288072346,-0.22175724288072346,0.9751019050488722,314.40044123790415,29.995175509266176)" fill="#f3faa0"></use><use xlink:href="#bbburst-shape-4" width="7.588869154938197" opacity="0.9133073453536757" transform="matrix(0.7972652752546103,0.6036290921362143,-0.6036290921362143,0.7972652752546103,652.9612675340035,115.01020092758489)" fill="#9f82f5"></use><use xlink:href="#bbburst-shape-8" width="7.74303669582099" opacity="0.8663988435953873" transform="matrix(0.8030543580835436,0.5959057794341549,-0.5959057794341549,0.8030543580835436,576.2995635876493,88.25836595597366)" fill="none" stroke="#ffbd9b"></use><use xlink:href="#bbburst-shape-8" width="10.637848683744627" opacity="0.8369835312670282" transform="matrix(0.806934649400884,0.5906407297133109,-0.5906407297133109,0.806934649400884,605.4149067140794,5.70007922283304)" fill="none" stroke="#ffbd9b"></use><use xlink:href="#bbburst-shape-1" width="18.449755410943162" opacity="0.35498725695462807" transform="matrix(0.7852799132234523,0.6191409030969989,-0.6191409030969989,0.7852799132234523,696.1143470287202,365.0530950780667)" fill="#de8ec7"></use><use xlink:href="#bbburst-shape-9" width="25.650977017538327" opacity="0.4824396717034416" transform="matrix(0.9510358123630084,0.30908070726435294,-0.30908070726435294,0.9510358123630084,744.1601333358293,5.1037264318380835)" fill="none" stroke="#f3faa0"></use><use xlink:href="#bbburst-shape-12" width="31.21554287475559" opacity="0.160967923359284" transform="matrix(0.7687125791838739,0.6395943797474117,-0.6395943797474117,0.7687125791838739,380.1818504116658,-187.73380753247005)" fill="none" stroke="#9f82f5"></use><use xlink:href="#bbburst-shape-1" width="34.722653088416635" opacity="0.014880507966815615" transform="matrix(0.9006629358855983,0.43451844140604057,-0.43451844140604057,0.9006629358855983,922.8929947177352,284.1869792505779)" fill="#de8ec7"></use><use xlink:href="#bbburst-shape-10" width="10.179488163490564" opacity="0.8101399847237317" transform="matrix(0.7367349897135593,-0.6761815990780596,0.6761815990780596,0.7367349897135593,193.95240699775866,160.24199574083661)" fill="none" stroke="#f3faa0"></use><use xlink:href="#bbburst-shape-9" width="6.376109522497007" opacity="0.8544559650013317" transform="matrix(0.9950748615894025,-0.09912628225062979,0.09912628225062979,0.9950748615894025,296.0082605493626,-21.1759199143375)" fill="none" stroke="#faa0b4"></use><use xlink:href="#bbburst-shape-1" width="18.928692929040324" opacity="0.6445608109689996" transform="matrix(0.8370672494820052,0.5471000089971032,-0.5471000089971032,0.8370672494820052,763.3434290357461,11.584436098896788)" fill="#de8ec7"></use><use xlink:href="#bbburst-shape-10" width="20.393199173315086" opacity="0.5497954391054726" transform="matrix(0.8298327367003444,0.558012212321932,-0.558012212321932,0.8298327367003444,814.3852004582441,96.82553052900198)" fill="none" stroke="#f3faa0"></use><use xlink:href="#bbburst-shape-10" width="21.18955664444219" opacity="0.1758043763564504" transform="matrix(0.9003928339132112,-0.43507786043159735,0.43507786043159735,0.9003928339132112,586.9345076281163,27.603778862811566)" fill="none" stroke="#faa0b4"></use><use xlink:href="#bbburst-shape-8" width="15.681107433011197" opacity="0.7153809647753226" transform="matrix(0.9341982129145406,0.35675439589061625,-0.35675439589061625,0.9341982129145406,407.41593808269374,29.00555120131878)" fill="none" stroke="#9f82f5"></use><use xlink:href="#bbburst-shape-12" width="5.92777236197804" opacity="0.8920187212697271" transform="matrix(0.9557080219945944,0.29431645671824064,-0.29431645671824064,0.9557080219945944,474.38630397750546,-9.998876088573297)" fill="none" stroke="#faa0b4"></use><use xlink:href="#bbburst-shape-10" width="14.062087261557776" opacity="0.7006007090142641" transform="matrix(0.8616404850578456,-0.5075191370867511,0.5075191370867511,0.8616404850578456,158.16622818553589,189.5963712400022)" fill="none" stroke="#f3faa0"></use><use xlink:href="#bbburst-shape-4" width="24.926485099695874" opacity="0.31627809253320405" transform="matrix(0.9997707455975547,-0.021411591424027692,0.021411591424027692,0.9997707455975547,347.92514464984396,-305.722881445601)" fill="#ffbd9b"></use><use xlink:href="#bbburst-shape-5" width="11.738661140318804" opacity="0.7930875427285007" transform="matrix(0.9967520915789712,0.08053116125417699,-0.08053116125417699,0.9967520915789712,517.6025670802319,-17.741653562199417)" fill="#ffbd9b"></use><use xlink:href="#bbburst-shape-1" width="37.39579961018162" opacity="0.14154542274221837" transform="matrix(0.9994512447590465,0.03312415054899768,-0.03312415054899768,0.9994512447590465,534.8290823679525,-360.29045689574315)" fill="#ffbd9b"></use><use xlink:href="#bbburst-shape-4" width="24.672635957839944" opacity="0.224904811720272" transform="matrix(0.9889556528310927,-0.14821172940569657,0.14821172940569657,0.9889556528310927,26.368575391087973,180.5147680316927)" fill="#9f82f5"></use><use xlink:href="#bbburst-shape-10" width="7.223803197137917" opacity="0.8717007906397157" transform="matrix(0.8013371946388169,0.5982129223682742,-0.5982129223682742,0.8013371946388169,661.6285455072123,129.23079129829546)" fill="none" stroke="#f3faa0"></use><use xlink:href="#bbburst-shape-9" width="37.04298243345885" opacity="-0.11046513957446114" transform="matrix(0.8937925901048103,0.4484805523918897,-0.4484805523918897,0.8937925901048103,211.53009182169862,389.21872191721076)" fill="none" stroke="#f3faa0"></use><use xlink:href="#bbburst-shape-8" width="13.283370818879957" opacity="0.7205502622226183" transform="matrix(0.9987928055941006,0.049121599052404194,-0.049121599052404194,0.9987928055941006,447.4604791336168,121.09945490097812)" fill="none" stroke="#f3faa0"></use><use xlink:href="#bbburst-shape-4" width="31.479011900306116" opacity="0.21967442561604" transform="matrix(0.7661653836896251,-0.6426434507841262,0.6426434507841262,0.7661653836896251,342.3547614284626,384.012511550989)" fill="#9f82f5"></use><use xlink:href="#bbburst-shape-5" width="33.81912160809944" opacity="0.11964738963645372" transform="matrix(0.9045197509618709,0.4264317297292441,-0.4264317297292441,0.9045197509618709,398.5014594292654,-332.8358142652868)" fill="#faa0b4"></use><use xlink:href="#bbburst-shape-8" width="26.982627309576483" opacity="0.17882499064800605" transform="matrix(0.9089562814946834,-0.4168914466996868,0.4168914466996868,0.9089562814946834,258.9014392801307,-325.53598327504403)" fill="none" stroke="#f3faa0"></use><use xlink:href="#bbburst-shape-5" width="24.368932978696968" opacity="0.21926877566767378" transform="matrix(0.9902512565303664,0.1392926736767968,-0.1392926736767968,0.9902512565303664,369.28588286524763,345.57071230094584)" fill="#faa0b4"></use><use xlink:href="#bbburst-shape-12" width="38.99895232926963" opacity="-0.09997221950637969" transform="matrix(0.8320609533605655,-0.554684207358301,0.554684207358301,0.8320609533605655,-186.63221996424633,-273.5840843835889)" fill="none" stroke="#faa0b4"></use><use xlink:href="#bbburst-shape-5" width="4.607983230774006" opacity="0.9698154852362579" transform="matrix(0.994964980817153,-0.10022318567837638,0.10022318567837638,0.994964980817153,369.1144828813642,9.47937776501226)" fill="#faa0b4"></use><use xlink:href="#bbburst-shape-4" width="23.11305961381562" opacity="0.247539392472658" transform="matrix(0.9027620240181368,0.43014035847694776,-0.43014035847694776,0.9027620240181368,351.15240253780996,299.1990668674987)" fill="#ffbd9b"></use><use xlink:href="#bbburst-shape-5" width="14.029009078974529" opacity="0.7514349946944637" transform="matrix(0.9821472080284983,0.18811395950812784,-0.18811395950812784,0.9821472080284983,548.0729423858168,-72.64262101537804)" fill="#f3faa0"></use><use xlink:href="#bbburst-shape-1" width="9.469218600018346" opacity="0.8148598404718372" transform="matrix(0.7728540584982766,-0.634583803971345,0.634583803971345,0.7728540584982766,183.96489184091394,166.142502123766)" fill="#faa0b4"></use><use xlink:href="#bbburst-shape-12" width="33.060143893395136" opacity="0.2172023221247591" transform="matrix(0.8741058657806211,-0.4857354582567664,0.4857354582567664,0.8741058657806211,492.3652125625972,-124.42913022944268)" fill="none" stroke="#9f82f5"></use><use xlink:href="#bbburst-shape-8" width="13.7439137384645" opacity="0.6114197824537619" transform="matrix(0.9269104059936675,0.3752826924608361,-0.3752826924608361,0.9269104059936675,408.41871134205064,-84.08437811705016)" fill="none" stroke="#faa0b4"></use><use xlink:href="#bbburst-shape-8" width="5.755139672433255" opacity="0.9679613947998275" transform="matrix(0.9718513050254615,0.23559507830238618,-0.23559507830238618,0.9718513050254615,490.0180487748113,-3.765397600532367)" fill="none" stroke="#de8ec7"></use><use xlink:href="#bbburst-shape-10" width="5.2878771250388255" opacity="0.976190523116595" transform="matrix(0.9398070811945796,0.3417055020577295,-0.3417055020577295,0.9398070811945796,535.5111423630327,33.80713621872496)" fill="none" stroke="#ffbd9b"></use><use xlink:href="#bbburst-shape-1" width="5.929373312461647" opacity="0.9288300566375397" transform="matrix(0.9552207013286635,-0.2958942577225456,0.2958942577225456,0.9552207013286635,259.1535785972248,44.07898011059865)" fill="#faa0b4"></use><use xlink:href="#bbburst-shape-4" width="13.927557774684534" opacity="0.6965471161982334" transform="matrix(0.7326336010910451,-0.6806232486128925,0.6806232486128925,0.7326336010910451,21.519754938357153,203.44588098353)" fill="#de8ec7"></use><use xlink:href="#bbburst-shape-8" width="38.57276758368408" opacity="0.08491778068787892" transform="matrix(0.9837546937300925,-0.1795179728161274,0.1795179728161274,0.9837546937300925,596.6574384501072,304.8299973252251)" fill="none" stroke="#f3faa0"></use><use xlink:href="#bbburst-shape-8" width="8.099698372271249" opacity="0.8258398139453502" transform="matrix(0.9554279721351839,-0.29522430465944055,0.29522430465944055,0.9554279721351839,340.2595579130887,-28.630866625544)" fill="none" stroke="#f3faa0"></use><use xlink:href="#bbburst-shape-9" width="24.203203560049246" opacity="0.4928534321084861" transform="matrix(0.9332836275593366,0.35914018228219113,-0.35914018228219113,0.9332836275593366,742.3672074406941,111.65811264298623)" fill="none" stroke="#9f82f5"></use><use xlink:href="#bbburst-shape-12" width="5.844762973328416" opacity="0.9239072040164366" transform="matrix(0.9821722573380965,0.18798312933715047,-0.18798312933715047,0.9821722573380965,462.5673743497861,-26.25073646520326)" fill="none" stroke="#faa0b4"></use><use xlink:href="#bbburst-shape-12" width="21.68694427974615" opacity="0.5992545180987368" transform="matrix(0.9993575912889276,-0.03583859279035004,0.03583859279035004,0.9993575912889276,554.6007200370565,-13.612153803608294)" fill="none" stroke="#ffbd9b"></use><use xlink:href="#bbburst-shape-10" width="15.901110325547306" opacity="0.579973858364558" transform="matrix(0.9801655588060316,-0.19818041611233872,0.19818041611233872,0.9801655588060316,325.7142909040305,198.0886763564663)" fill="none" stroke="#ffbd9b"></use><use xlink:href="#bbburst-shape-5" width="21.540597567011783" opacity="0.31385405679776346" transform="matrix(0.9991493113994937,0.04123898070900314,-0.04123898070900314,0.9991493113994937,97.05196481253051,7.062865130976036)" fill="#f3faa0"></use><use xlink:href="#bbburst-shape-4" width="17.97303577344397" opacity="0.16714625972705144" transform="matrix(0.8690114966957044,-0.49479189424513775,0.49479189424513775,0.8690114966957044,188.56932077415098,431.59668085827724)" fill="#f3faa0"></use><use xlink:href="#bbburst-shape-12" width="14.784321181850594" opacity="0.6466487760392065" transform="matrix(0.8705038408366695,0.49216162293357085,-0.49216162293357085,0.8705038408366695,578.7834412415899,206.71701430872298)" fill="none" stroke="#faa0b4"></use><use xlink:href="#bbburst-shape-10" width="27.16669900098727" opacity="0.21312293425913953" transform="matrix(0.8969148159019046,0.4422033616060065,-0.4422033616060065,0.8969148159019046,262.0519782483947,-148.58842668964976)" fill="none" stroke="#faa0b4"></use><use xlink:href="#bbburst-shape-9" width="5.0546031430813585" opacity="0.9020787689238505" transform="matrix(0.9647930052113773,0.26301037450108156,-0.26301037450108156,0.9647930052113773,458.73510102862815,14.865284020070646)" fill="none" stroke="#9f82f5"></use><use xlink:href="#bbburst-shape-10" width="8.078725953767895" opacity="0.8812671230621898" transform="matrix(0.9896538615141539,-0.1434755532839092,0.1434755532839092,0.9896538615141539,342.6410473709633,57.99568738316657)" fill="none" stroke="#de8ec7"></use><use xlink:href="#bbburst-shape-8" width="12.393242736225973" opacity="0.6756534099359626" transform="matrix(0.7566122662915864,0.6538638073001973,-0.6538638073001973,0.7566122662915864,778.2970787581844,174.2692506629042)" fill="none" stroke="#ffbd9b"></use><use xlink:href="#bbburst-shape-12" width="14.173586815560464" opacity="0.6066634672010234" transform="matrix(0.8990675744503155,0.43780988633427,-0.43780988633427,0.8990675744503155,637.000905581588,200.56649334351442)" fill="none" stroke="#faa0b4"></use><use xlink:href="#bbburst-shape-4" width="25.17416822726893" opacity="0.4099045288039914" transform="matrix(0.9153381563457224,0.40268605580230105,-0.40268605580230105,0.9153381563457224,806.6866722368499,-37.44439878582176)" fill="#9f82f5"></use><use xlink:href="#bbburst-shape-9" width="18.60980168343105" opacity="0.6025230467651844" transform="matrix(0.8386692646932985,-0.5446410418420576,0.5446410418420576,0.8386692646932985,2.478313009707364,19.69884010972504)" fill="none" stroke="#de8ec7"></use><use xlink:href="#bbburst-shape-4" width="7.333476315846151" opacity="0.8555694136625394" transform="matrix(0.9892937271995376,-0.1459380735916676,0.1459380735916676,0.9892937271995376,273.1906114919481,-0.09098845717943504)" fill="#9f82f5"></use><use xlink:href="#bbburst-shape-8" width="11.244402065555134" opacity="0.8427642033317725" transform="matrix(0.9958695603104242,-0.09079547812045698,0.09079547812045698,0.9958695603104242,379.9702894479903,-65.12305852091987)" fill="none" stroke="#faa0b4"></use><use xlink:href="#bbburst-shape-12" width="10.018716138733796" opacity="0.7632026376713253" transform="matrix(0.7282809966185393,-0.6852786221416126,0.6852786221416126,0.7282809966185393,105.51175839359723,217.34668049371868)" fill="none" stroke="#ffbd9b"></use><use xlink:href="#bbburst-shape-4" width="18.673898111608054" opacity="0.7087663753860818" transform="matrix(0.9507586781810127,0.3099321471927259,-0.3099321471927259,0.9507586781810127,581.2836037178552,-96.291333259005)" fill="#9f82f5"></use><use xlink:href="#bbburst-shape-9" width="18.17899949410529" opacity="0.5785832091688778" transform="matrix(0.9951991972628038,0.09787010660804933,-0.09787010660804933,0.9951991972628038,592.8914230553584,-96.38444545421652)" fill="none" stroke="#9f82f5"></use><use xlink:href="#bbburst-shape-1" width="5.449890394872075" opacity="0.923220016328293" transform="matrix(0.9096094656720244,0.41546434258532267,-0.41546434258532267,0.9096094656720244,597.9824001079346,39.36350191917023)" fill="#9f82f5"></use><use xlink:href="#bbburst-shape-12" width="13.867818431886255" opacity="0.6520769964377389" transform="matrix(0.7217970104939203,-0.6921048155027094,0.6921048155027094,0.7217970104939203,149.0251501919713,269.55002232280236)" fill="none" stroke="#f3faa0"></use><use xlink:href="#bbburst-shape-8" width="23.89925015589226" opacity="0.41583636866747387" transform="matrix(0.8124687651848149,-0.5830047217639511,0.5830047217639511,0.8124687651848149,86.8851222314945,-171.34649884359845)" fill="none" stroke="#faa0b4"></use><use xlink:href="#bbburst-shape-1" width="6.877937157294491" opacity="0.9470957780313293" transform="matrix(0.9600552413037037,-0.27981053169115566,0.27981053169115566,0.9600552413037037,289.8402949833409,40.21083609796898)" fill="#faa0b4"></use><use xlink:href="#bbburst-shape-1" width="19.54525346526527" opacity="0.5088628211960632" transform="matrix(0.9251259216254952,0.379660412917357,-0.379660412917357,0.9251259216254952,601.4730369095015,239.347758449892)" fill="#de8ec7"></use><use xlink:href="#bbburst-shape-1" width="15.871421890188044" opacity="0.5751823708964054" transform="matrix(0.751706381311393,0.6594979274385406,-0.6594979274385406,0.751706381311393,569.2871360282859,263.53077493986797)" fill="#9f82f5"></use><use xlink:href="#bbburst-shape-5" width="7.134073472291764" opacity="0.8870178016991515" transform="matrix(0.9999980413032007,-0.001979239692919736,0.001979239692919736,0.9999980413032007,432.2177839526681,-35.30599156000977)" fill="#f3faa0"></use><use xlink:href="#bbburst-shape-12" width="11.926232290447222" opacity="0.7072687985425079" transform="matrix(0.9322976764860241,0.36169191644099624,-0.36169191644099624,0.9322976764860241,411.5491604240907,-7.912139291313963)" fill="none" stroke="#de8ec7"></use><use xlink:href="#bbburst-shape-8" width="5.217700239161547" opacity="0.949840107746675" transform="matrix(0.7359846130139424,0.6769982639613764,-0.6769982639613764,0.7359846130139424,691.0561503123523,108.04440512152536)" fill="none" stroke="#ffbd9b"></use><use xlink:href="#bbburst-shape-9" width="13.775168098845768" opacity="0.7499649189241955" transform="matrix(0.9077882533528986,-0.41942876281258246,0.41942876281258246,0.9077882533528986,314.2008708168759,109.46964336034301)" fill="none" stroke="#de8ec7"></use><use xlink:href="#bbburst-shape-1" width="11.99069922358985" opacity="0.7786233650055505" transform="matrix(0.9789026463025021,0.2043272107722276,-0.2043272107722276,0.9789026463025021,445.23417445267427,-87.56635402392419)" fill="#f3faa0"></use><use xlink:href="#bbburst-shape-8" width="4.516611684336522" opacity="0.9126837976936139" transform="matrix(0.9711934351852981,-0.23829249139026637,0.23829249139026637,0.9711934351852981,301.6939086678583,51.34499362177826)" fill="none" stroke="#f3faa0"></use><use xlink:href="#bbburst-shape-10" width="8.709090995997197" opacity="0.8170092049495843" transform="matrix(0.9877938124563044,-0.15576708276474618,0.15576708276474618,0.9877938124563044,251.3821334261677,12.994420070082867)" fill="none" stroke="#9f82f5"></use><use xlink:href="#bbburst-shape-9" width="31.892493073163497" opacity="0.32603236375454436" transform="matrix(0.7704737850041408,0.6374716829957179,-0.6374716829957179,0.7704737850041408,870.3802077041709,-119.03802865808115)" fill="none" stroke="#de8ec7"></use><use xlink:href="#bbburst-shape-5" width="7.328237905146746" opacity="0.8645103549054503" transform="matrix(0.9583758487196063,-0.2855096015740524,0.2855096015740524,0.9583758487196063,246.76377349890882,-31.858778633473833)" fill="#ffbd9b"></use><use xlink:href="#bbburst-shape-10" width="12.828500196150218" opacity="0.7694537951193475" transform="matrix(0.8526577269154683,0.5224699041393166,-0.5224699041393166,0.8526577269154683,500.3721325680927,44.452193617661635)" fill="none" stroke="#f3faa0"></use><use xlink:href="#bbburst-shape-12" width="9.535556087434824" opacity="0.8400874854280742" transform="matrix(0.7942284113694085,-0.6076193138582954,0.6076193138582954,0.7942284113694085,197.0109372767872,28.13935271266223)" fill="none" stroke="#f3faa0"></use><use xlink:href="#bbburst-shape-9" width="33.285811979537314" opacity="0.31467519605185035" transform="matrix(0.9999695756359339,-0.00780050014359635,0.00780050014359635,0.9999695756359339,442.78311480894524,-302.0691505353404)" fill="none" stroke="#faa0b4"></use><use xlink:href="#bbburst-shape-12" width="20.005641556014528" opacity="0.5078212261889825" transform="matrix(0.8043886252879455,0.5941034754210491,-0.5941034754210491,0.8043886252879455,475.41528971087536,231.2553513024161)" fill="none" stroke="#9f82f5"></use><use xlink:href="#bbburst-shape-8" width="11.729410149050773" opacity="0.8161124684013691" transform="matrix(0.9967080969008777,-0.08107385258041314,0.08107385258041314,0.9967080969008777,356.930040995577,-80.81811030696434)" fill="none" stroke="#ffbd9b"></use><use xlink:href="#bbburst-shape-4" width="18.850367878384823" opacity="0.49098483048778263" transform="matrix(0.8031988513644174,0.5957110080961074,-0.5957110080961074,0.8031988513644174,410.7828023854678,9.074586292179845)" fill="#9f82f5"></use><use xlink:href="#bbburst-shape-8" width="6.466521284020282" opacity="0.8810627281208879" transform="matrix(0.8322992165875144,-0.5543266312092626,0.5543266312092626,0.8322992165875144,223.86643573765997,45.789336791318135)" fill="none" stroke="#faa0b4"></use><use xlink:href="#bbburst-shape-10" width="7.05240154502667" opacity="0.8983260585779516" transform="matrix(0.7089384396208245,-0.7052703657662007,0.7052703657662007,0.7089384396208245,160.80368621394211,113.33119406458468)" fill="none" stroke="#f3faa0"></use><use xlink:href="#bbburst-shape-12" width="33.84536211639994" opacity="0.11802192229370667" transform="matrix(0.866981453609983,-0.49834040484022657,0.49834040484022657,0.866981453609983,-180.8147870968904,-90.05966772836939)" fill="none" stroke="#f3faa0"></use><use xlink:href="#bbburst-shape-9" width="29.91658261840083" opacity="0.05183673366781316" transform="matrix(0.770547797272705,0.6373822182318726,-0.6373822182318726,0.770547797272705,863.6359623921005,447.62488667463566)" fill="none" stroke="#9f82f5"></use><use xlink:href="#bbburst-shape-9" width="26.780242907278733" opacity="0.287738778758021" transform="matrix(0.740498998743067,-0.6720574624691815,0.6720574624691815,0.740498998743067,133.0080457722176,432.9634067741416)" fill="none" stroke="#faa0b4"></use><use xlink:href="#bbburst-shape-8" width="27.58277225854113" opacity="0.32513800419083927" transform="matrix(0.7220476306573324,0.6918433486434141,-0.6918433486434141,0.7220476306573324,479.3360889279023,-137.29857772523292)" fill="none" stroke="#f3faa0"></use><use xlink:href="#bbburst-shape-4" width="27.01256602568261" opacity="0.13719320133351176" transform="matrix(0.9976970288556755,0.06782800758210009,-0.06782800758210009,0.9976970288556755,130.3999121258354,265.57643884483605)" fill="#9f82f5"></use><use xlink:href="#bbburst-shape-1" width="4.005264372447432" opacity="0.9600807126314793" transform="matrix(0.7450301736134188,-0.6670307642122356,0.6670307642122356,0.7450301736134188,122.6027698895179,118.81791748521829)" fill="#f3faa0"></use><use xlink:href="#bbburst-shape-8" width="45.62440938501767" opacity="-0.09339584436943582" transform="matrix(0.9074673585691938,-0.4201225929790617,0.4201225929790617,0.9074673585691938,557.6527778038192,-302.82618288371106)" fill="none" stroke="#ffbd9b"></use><use xlink:href="#bbburst-shape-12" width="18.70974882855596" opacity="0.6551005184124088" transform="matrix(0.9980031774656607,0.06316373776499393,-0.06316373776499393,0.9980031774656607,419.77011915356803,-154.98328533985148)" fill="none" stroke="#de8ec7"></use><use xlink:href="#bbburst-shape-12" width="10.181882864513163" opacity="0.7689735482978891" transform="matrix(0.9655101773177039,0.26036531546259356,-0.26036531546259356,0.9655101773177039,603.1505052248525,15.576824947269301)" fill="none" stroke="#f3faa0"></use><use xlink:href="#bbburst-shape-10" width="9.34359584626025" opacity="0.7245584228425436" transform="matrix(0.9989523865363465,-0.04576165898803956,0.04576165898803956,0.9989523865363465,498.3744118788421,25.90011600616117)" fill="none" stroke="#ffbd9b"></use><use xlink:href="#bbburst-shape-9" width="29.30689062441414" opacity="-0.1057484659511656" transform="matrix(0.9229032570399721,0.3850319183457538,-0.3850319183457538,0.9229032570399721,887.2413647029384,381.9572039363761)" fill="none" stroke="#f3faa0"></use><use xlink:href="#bbburst-shape-9" width="28.45362283290108" opacity="0.4615183788869909" transform="matrix(0.9849003055940199,-0.17312246544225943,0.17312246544225943,0.9849003055940199,402.7381965135181,-218.21602823106417)" fill="none" stroke="#f3faa0"></use><use xlink:href="#bbburst-shape-4" width="21.58748608798077" opacity="0.5276780301787432" transform="matrix(0.9399088287091699,-0.34142553172625534,0.34142553172625534,0.9399088287091699,218.09502015565295,237.35062889732416)" fill="#faa0b4"></use><use xlink:href="#bbburst-shape-10" width="26.38007940063716" opacity="0.3936736667668338" transform="matrix(0.7423375256885298,-0.670026117367548,0.670026117367548,0.7423375256885298,285.8446862463253,-106.42092962529111)" fill="none" stroke="#ffbd9b"></use><use xlink:href="#bbburst-shape-8" width="24.012245762504783" opacity="0.5472298504981962" transform="matrix(0.9641362096774441,0.2654079297775626,-0.2654079297775626,0.9641362096774441,291.01308170909925,2.7890328825981214)" fill="none" stroke="#ffbd9b"></use><use xlink:href="#bbburst-shape-12" width="17.88450174403248" opacity="0.5764158897444134" transform="matrix(0.9487683700536389,-0.3159724354841121,0.3159724354841121,0.9487683700536389,179.53853401885877,-147.03476833393177)" fill="none" stroke="#9f82f5"></use><use xlink:href="#bbburst-shape-1" width="29.377661693661103" opacity="0.4964358238226777" transform="matrix(0.8263221075412785,0.5631978112426749,-0.5631978112426749,0.8263221075412785,784.6037048885471,-86.90092451298361)" fill="#faa0b4"></use><use xlink:href="#bbburst-shape-9" width="8.566847218213617" opacity="0.8819557715969096" transform="matrix(0.80590900915459,0.5920394150421633,-0.5920394150421633,0.80590900915459,685.116085817049,87.17634385755343)" fill="none" stroke="#ffbd9b"></use><use xlink:href="#bbburst-shape-8" width="9.31214065781824" opacity="0.7649087332315055" transform="matrix(0.9913311607498427,-0.13138694656003522,0.13138694656003522,0.9913311607498427,239.07933140900332,24.758984938260483)" fill="none" stroke="#f3faa0"></use><use xlink:href="#bbburst-shape-8" width="18.949501788309327" opacity="0.4549799606401018" transform="matrix(0.9988676117144261,-0.04757619434043253,0.04757619434043253,0.9988676117144261,290.4879539390122,232.39485672579463)" fill="none" stroke="#9f82f5"></use><use xlink:href="#bbburst-shape-9" width="6.212491015040532" opacity="0.8886145770553974" transform="matrix(0.9313351010079584,-0.36416332823404396,0.36416332823404396,0.9313351010079584,272.0790316544964,-17.11275293103114)" fill="none" stroke="#9f82f5"></use><use xlink:href="#bbburst-shape-9" width="14.104681250757626" opacity="0.7421793735104389" transform="matrix(0.912085109118302,0.41000091917537834,-0.41000091917537834,0.912085109118302,487.7210513872499,124.79676789670322)" fill="none" stroke="#f3faa0"></use><use xlink:href="#bbburst-shape-10" width="18.69379537866309" opacity="0.6531436868333478" transform="matrix(0.8727178398839196,0.4882249194258168,-0.4882249194258168,0.8727178398839196,741.7601466182842,67.63339547373812)" fill="none" stroke="#de8ec7"></use><use xlink:href="#bbburst-shape-1" width="33.17457072586982" opacity="0.17760063025733497" transform="matrix(0.8423480748819304,0.5389338741837498,-0.5389338741837498,0.8423480748819304,537.9025809469241,-310.40325237997195)" fill="#de8ec7"></use><use xlink:href="#bbburst-shape-9" width="21.897247770073704" opacity="0.5768911600192512" transform="matrix(0.9164328830483814,-0.4001884192072925,0.4001884192072925,0.9164328830483814,386.58966473661593,145.7414566023195)" fill="none" stroke="#faa0b4"></use><use xlink:href="#bbburst-shape-8" width="7.390259690478592" opacity="0.9271184194847487" transform="matrix(0.8658011033825209,0.5003882986058021,-0.5003882986058021,0.8658011033825209,626.9486450037602,38.56142861788754)" fill="none" stroke="#faa0b4"></use><use xlink:href="#bbburst-shape-4" width="26.163925544360083" opacity="0.4046966587770183" transform="matrix(0.9938766981989564,0.11049483597499245,-0.11049483597499245,0.9938766981989564,165.4578984094124,-32.85188362617993)" fill="#faa0b4"></use><use xlink:href="#bbburst-shape-8" width="14.121403090653287" opacity="0.6319073154816993" transform="matrix(0.9768101142300977,-0.2141074513831398,0.2141074513831398,0.9768101142300977,206.57898851683183,142.1657279792076)" fill="none" stroke="#f3faa0"></use><use xlink:href="#bbburst-shape-8" width="4.8213364991963195" opacity="0.9896968773642569" transform="matrix(0.9784775449165339,-0.20635332343849536,0.20635332343849536,0.9784775449165339,318.72919092219627,6.221230828672901)" fill="none" stroke="#faa0b4"></use><use xlink:href="#bbburst-shape-1" width="30.513589617952093" opacity="0.13230466114761708" transform="matrix(0.719580201481892,0.6944093415524304,-0.6944093415524304,0.719580201481892,1036.0521667682633,228.4207269585536)" fill="#de8ec7"></use><use xlink:href="#bbburst-shape-9" width="14.693053248926606" opacity="0.729105319363185" transform="matrix(0.9191374796199103,-0.39393691570854217,0.39393691570854217,0.9191374796199103,351.4511019804473,-2.8859088811249194)" fill="none" stroke="#9f82f5"></use><use xlink:href="#bbburst-shape-4" width="28.57408325499033" opacity="0.442445291696722" transform="matrix(0.8869162232641629,-0.4619303117471656,0.4619303117471656,0.8869162232641629,216.5921121952406,-198.65123460926245)" fill="#9f82f5"></use><use xlink:href="#bbburst-shape-8" width="19.15763709266123" opacity="0.5079690439853211" transform="matrix(0.7981510717901394,-0.6024573566653922,0.6024573566653922,0.7981510717901394,305.83205054831006,245.14877475169635)" fill="none" stroke="#f3faa0"></use><use xlink:href="#bbburst-shape-12" width="24.108709053516634" opacity="0.28866145557700973" transform="matrix(0.8926142566785721,-0.4508212381578315,0.4508212381578315,0.8926142566785721,357.5564898547595,-235.13640210118547)" fill="none" stroke="#de8ec7"></use><use xlink:href="#bbburst-shape-10" width="20.904951805081996" opacity="0.45402638575689513" transform="matrix(0.993332183790835,-0.11528734815811709,0.11528734815811709,0.993332183790835,223.91849147809086,-210.74931001944125)" fill="none" stroke="#faa0b4"></use><use xlink:href="#bbburst-shape-10" width="21.223563629491014" opacity="0.6203781849698546" transform="matrix(0.9472463005486582,0.3205065461061302,-0.3205065461061302,0.9472463005486582,580.8131178968412,-141.22178743960896)" fill="none" stroke="#ffbd9b"></use><use xlink:href="#bbburst-shape-12" width="21.691653704977867" opacity="0.48620242816003845" transform="matrix(0.9503267526823671,-0.31125401706032185,0.31125401706032185,0.9503267526823671,102.06860483441565,-140.65969643716696)" fill="none" stroke="#ffbd9b"></use><use xlink:href="#bbburst-shape-5" width="26.58234010229824" opacity="0.3354469596449794" transform="matrix(0.8999458523591332,0.4360016775444714,-0.4360016775444714,0.8999458523591332,332.8472346393657,225.84528401035425)" fill="#faa0b4"></use><use xlink:href="#bbburst-shape-8" width="6.063215947407391" opacity="0.9531574430443317" transform="matrix(0.9629657371384106,-0.26962379178677376,0.26962379178677376,0.9629657371384106,269.730776868631,23.635234020229973)" fill="none" stroke="#9f82f5"></use><use xlink:href="#bbburst-shape-4" width="14.653518409529388" opacity="0.6854815839558618" transform="matrix(0.8101654943333908,-0.5862012212470497,0.5862012212470497,0.8101654943333908,95.53722550230361,206.4486269487914)" fill="#de8ec7"></use><use xlink:href="#bbburst-shape-4" width="22.013817902062303" opacity="0.3919095539580001" transform="matrix(0.9819707072667223,-0.18903314542717942,0.18903314542717942,0.9819707072667223,144.61825757574087,224.55717223371494)" fill="#faa0b4"></use><use xlink:href="#bbburst-shape-8" width="20.65652028010382" opacity="0.4933329452234685" transform="matrix(0.8498904160560867,-0.5269594677923642,0.5269594677923642,0.8498904160560867,293.3670138320044,263.5550587228627)" fill="none" stroke="#9f82f5"></use><use xlink:href="#bbburst-shape-8" width="7.926526521548344" opacity="0.8575600661490247" transform="matrix(0.8768574980356861,0.4807503802792013,-0.4807503802792013,0.8768574980356861,568.4022367018855,108.10907276599676)" fill="none" stroke="#faa0b4"></use><use xlink:href="#bbburst-shape-5" width="35.80926184327486" opacity="0.1665891835976755" transform="matrix(0.7549097051527345,-0.6558287406527801,0.6558287406527801,0.7549097051527345,-238.77833482857997,204.2911679090339)" fill="#9f82f5"></use><use xlink:href="#bbburst-shape-12" width="26.722646125449224" opacity="0.11666939578637159" transform="matrix(0.9404295661411639,-0.33998857499560503,0.33998857499560503,0.9404295661411639,112.9447342088643,400.9231260191906)" fill="none" stroke="#ffbd9b"></use><use xlink:href="#bbburst-shape-12" width="29.920662005820667" opacity="0.1578029432414605" transform="matrix(0.93559920732943,0.3530639081590501,-0.3530639081590501,0.93559920732943,341.80567268867253,350.94786151863514)" fill="none" stroke="#9f82f5"></use><use xlink:href="#bbburst-shape-10" width="9.544756663534802" opacity="0.8423612924490557" transform="matrix(0.8482158675397116,0.5296506792725318,-0.5296506792725318,0.8482158675397116,674.072571884662,83.51753577686316)" fill="none" stroke="#f3faa0"></use><use xlink:href="#bbburst-shape-12" width="24.234075411478052" opacity="0.49720970153259425" transform="matrix(0.9795724659998236,-0.20109148130894167,0.20109148130894167,0.9795724659998236,117.69780678437068,133.43232198860073)" fill="none" stroke="#de8ec7"></use><use xlink:href="#bbburst-shape-1" width="25.45725543474515" opacity="0.3341788464798353" transform="matrix(0.7282769610839791,-0.6852829108873826,0.6852829108873826,0.7282769610839791,416.10350043265817,107.78887288266469)" fill="#faa0b4"></use><use xlink:href="#bbburst-shape-8" width="23.635585746872298" opacity="0.41141179254822646" transform="matrix(0.7611395441116915,0.6485881546786423,-0.6485881546786423,0.7611395441116915,910.592890147242,137.6177976090121)" fill="none" stroke="#de8ec7"></use><use xlink:href="#bbburst-shape-10" width="11.316080348305707" opacity="0.786358837391051" transform="matrix(0.9911870428850944,0.13246979284615076,-0.13246979284615076,0.9911870428850944,457.8371718210295,98.34374024457173)" fill="none" stroke="#de8ec7"></use><use xlink:href="#bbburst-shape-1" width="7.783896614814497" opacity="0.8415234429851366" transform="matrix(0.8550330982696563,0.5185734286129519,-0.5185734286129519,0.8550330982696563,603.3480454215962,127.28759442015377)" fill="#f3faa0"></use><use xlink:href="#bbburst-shape-4" width="33.56593039389702" opacity="0.271548743862859" transform="matrix(0.9527964346865646,-0.30360987146101,0.30360987146101,0.9527964346865646,514.0977763055228,234.22226440651912)" fill="#faa0b4"></use><use xlink:href="#bbburst-shape-4" width="7.033990563942697" opacity="0.9075130000739393" transform="matrix(0.9407464213454079,-0.339110853152488,0.339110853152488,0.9407464213454079,264.4313049021075,-16.581402555078114)" fill="#ffbd9b"></use><use xlink:href="#bbburst-shape-12" width="36.881985388825406" opacity="0.03456814775509298" transform="matrix(0.9216866264333958,0.3879352557500103,-0.3879352557500103,0.9216866264333958,894.3756427719358,-224.65322200237463)" fill="none" stroke="#9f82f5"></use><use xlink:href="#bbburst-shape-8" width="8.180414826632944" opacity="0.8665270442013624" transform="matrix(0.8959537285177751,-0.4441474038594585,0.4441474038594585,0.8959537285177751,267.88596485089363,77.87297141187429)" fill="none" stroke="#de8ec7"></use><use xlink:href="#bbburst-shape-10" width="12.474849121870644" opacity="0.7869706278519737" transform="matrix(0.9878784717129796,-0.1552292663321827,0.1552292663321827,0.9878784717129796,350.0295643837006,-88.28675373905696)" fill="none" stroke="#9f82f5"></use></svg>